<svg width="91" height="46" viewBox="0 0 91 46" fill="none" xmlns="http://www.w3.org/2000/svg">
<rect width="91" height="46" fill="#1E1E1E"/>
<rect width="1440" height="871" transform="translate(-1021 -2334)" fill="white"/>
<rect width="1440" height="2212" transform="translate(-1021 -1914)" fill="white"/>
<path d="M90.0505 14.0308C89.9966 13.7796 89.8882 13.5417 89.7316 13.3397C89.614 13.188 89.4707 13.0575 89.31 12.9501C89.0691 12.7887 88.7913 12.6783 88.4852 12.6067C88.1797 12.5351 87.8443 12.5023 87.4771 12.5023H81.1677L81.0917 12.9604C80.4416 16.8838 79.2999 21.3121 77.937 25.5012C77.255 27.5958 76.5176 29.6309 75.759 31.5137C75.1947 32.9141 74.6185 34.2308 74.0453 35.4243L66.8881 13.768L66.886 13.762C66.7838 13.4738 66.6595 13.2159 66.4993 12.989C66.3796 12.819 66.2394 12.6668 66.0797 12.5399C65.9596 12.4447 65.8291 12.3628 65.691 12.2966C65.484 12.1965 65.2617 12.1291 65.0275 12.0879C64.7933 12.0461 64.5468 12.0291 64.2844 12.0291C63.8366 12.0291 63.3518 12.1 62.8372 12.2238C62.0659 12.4095 61.2288 12.7153 60.3902 13.1061C59.5521 13.4974 58.7134 13.9749 57.9472 14.5077L57.6006 14.7492L68.8488 45.3875H75.6096C76.0502 45.3875 76.4457 45.3602 76.8087 45.2977C77.0809 45.2504 77.3346 45.1831 77.5714 45.0908C77.9262 44.9531 78.2431 44.7565 78.5117 44.5059C78.7808 44.2553 79.0016 43.9556 79.19 43.6158C81.4717 39.5686 83.6866 34.7417 85.5801 29.765C87.4746 24.787 89.047 19.6604 90.0382 15.0125V15.0095L90.0397 15.0053C90.0757 14.8244 90.0947 14.6479 90.0947 14.4744C90.0947 14.3238 90.0803 14.1758 90.0485 14.032L90.0505 14.0308Z" fill="#FA0F5C"/>
<path d="M37.2217 41.07L37.1871 40.4541L36.5951 40.59C35.2081 40.9086 33.9263 41.0421 32.7484 41.0421C30.9682 41.0421 29.4251 40.7363 28.1165 40.2909C26.8079 39.8455 25.7346 39.26 24.9025 38.7L23.8784 38.0106L24.1149 39.2266C24.3525 40.3825 24.7074 41.3594 25.1584 42.1761C25.497 42.7883 25.8902 43.3102 26.3265 43.7465C26.9812 44.4006 27.7318 44.8593 28.5255 45.1493C29.3193 45.44 30.1544 45.5644 30.9889 45.5644C31.325 45.5644 31.6611 45.5443 31.9948 45.5067C33.5847 45.3289 34.8769 44.7367 35.7831 43.9467C36.2359 43.5517 36.5932 43.1063 36.84 42.6348C37.0868 42.1634 37.2235 41.664 37.2235 41.1665C37.2235 41.1343 37.2235 41.1027 37.2217 41.0706V41.07Z" fill="#CB0D4B"/>
<path d="M36.4932 38.1069C36.7868 38.8235 37.0475 39.6033 37.1867 40.4551L36.5947 40.5911C35.2078 40.909 33.926 41.0431 32.748 41.0431C30.9678 41.0431 29.4247 40.7373 28.1161 40.2919C26.8076 39.8466 25.7342 39.261 24.9016 38.701L23.8775 38.0117C23.8695 37.9498 23.8623 37.8873 23.855 37.8248L21.1309 13.6905L21.518 13.5351C23.2326 12.8464 25.0942 12.3931 27.2087 12.1553C27.4227 12.131 27.6262 12.1183 27.8219 12.1183C28.104 12.1183 28.3684 12.1444 28.6164 12.2026C28.8637 12.2603 29.0947 12.3507 29.3019 12.4787C29.4393 12.5636 29.5657 12.665 29.6769 12.7809C29.8258 12.935 29.9468 13.1146 30.0386 13.3088C30.1619 13.5691 30.2343 13.8543 30.2695 14.1595V14.1607L32.7128 35.8067C32.7608 36.2362 32.8337 36.5936 32.9249 36.8806C33.0155 37.1677 33.1249 37.3819 33.2385 37.5347C33.3151 37.6373 33.3929 37.7131 33.475 37.7726C33.585 37.8509 33.7029 37.9024 33.853 37.9328C33.9381 37.9498 34.0341 37.9595 34.1411 37.9595C34.2158 37.9595 34.2954 37.9552 34.3805 37.9455L36.3358 37.7235L36.4932 38.1069Z" fill="#FA0F5C"/>
<path d="M29.6228 4.70823C29.5449 4.02561 29.3432 3.40731 29.0435 2.8691C28.595 2.06027 27.9301 1.43469 27.1612 1.01602C26.3912 0.596134 25.5172 0.379517 24.6298 0.379517C24.4286 0.379517 24.2263 0.390438 24.0244 0.413496C23.3978 0.484488 22.8113 0.641035 22.2819 0.880103C21.4882 1.2381 20.822 1.7848 20.3607 2.49048C20.1298 2.84301 19.9505 3.23317 19.8295 3.65426C19.7086 4.07537 19.646 4.5268 19.646 5.0013C19.646 5.21124 19.6581 5.42604 19.6831 5.64449C19.7609 6.33557 19.9578 6.95876 20.2507 7.5006C20.6895 8.31426 21.3417 8.93986 22.1002 9.35491C22.8587 9.77114 23.723 9.98046 24.6024 9.98046C24.8085 9.98046 25.0157 9.96895 25.223 9.9459C25.8697 9.87307 26.469 9.72076 27.0081 9.48715C27.4122 9.31244 27.7824 9.09156 28.11 8.8258C28.6011 8.42837 28.9949 7.92776 29.2599 7.34587C29.5255 6.76397 29.6629 6.1038 29.6629 5.3872C29.6629 5.16573 29.6501 4.9388 29.624 4.70701L29.6228 4.70823Z" fill="#FA0F5C"/>
<path d="M56.1322 41.07L56.0978 40.4541L55.5056 40.59C54.1185 40.9086 52.8367 41.0421 51.6592 41.0421C49.8789 41.0421 48.3357 40.7363 47.0272 40.2909C45.7186 39.8455 44.6452 39.26 43.8132 38.7L42.7891 38.0106L43.0255 39.2266C43.2631 40.3825 43.6181 41.3594 44.0691 42.1761C44.4076 42.7883 44.8008 43.3102 45.2372 43.7465C45.8918 44.4006 46.6424 44.8593 47.4362 45.1493C48.2299 45.44 49.0651 45.5644 49.8995 45.5644C50.2356 45.5644 50.5717 45.5443 50.9054 45.5067C52.4952 45.3289 53.7873 44.7367 54.6937 43.9467C55.1467 43.5517 55.5041 43.1063 55.7506 42.6348C55.9976 42.1634 56.1342 41.664 56.1342 41.1665C56.1342 41.1343 56.1342 41.1027 56.1322 41.0706V41.07Z" fill="#CB0D4B"/>
<path d="M55.4041 38.1069C55.6973 38.8235 55.9582 39.6033 56.0974 40.4551L55.5052 40.5911C54.1181 40.909 52.8363 41.0431 51.6588 41.0431C49.8785 41.0431 48.3353 40.7373 47.0268 40.2919C45.7182 39.8466 44.6449 39.261 43.8122 38.701L42.7881 38.0117C42.7802 37.9498 42.7729 37.8873 42.7656 37.8248L40.0415 13.6905L40.4287 13.5351C42.1432 12.8464 44.0049 12.3931 46.1194 12.1553C46.3333 12.131 46.5369 12.1183 46.7326 12.1183C47.0146 12.1183 47.279 12.1444 47.527 12.2026C47.7744 12.2603 48.0053 12.3507 48.2126 12.4787C48.3499 12.5636 48.4763 12.665 48.5876 12.7809C48.7364 12.935 48.8574 13.1146 48.9492 13.3088C49.0726 13.5691 49.1449 13.8543 49.1802 14.1595V14.1607L51.6233 35.8067C51.6716 36.2362 51.7445 36.5936 51.8354 36.8806C51.9263 37.1677 52.0357 37.3819 52.1492 37.5347C52.2257 37.6373 52.3038 37.7131 52.3854 37.7726C52.4959 37.8509 52.6135 37.9024 52.7634 37.9328C52.8487 37.9498 52.9447 37.9595 53.0515 37.9595C53.1265 37.9595 53.2061 37.9552 53.2913 37.9455L55.2464 37.7235L55.4041 38.1069Z" fill="#FA0F5C"/>
<path d="M48.5334 4.70823C48.4556 4.02561 48.2538 3.40731 47.9542 2.8691C47.5056 2.06027 46.8407 1.43469 46.0719 1.01602C45.3018 0.596134 44.4278 0.379517 43.5404 0.379517C43.3393 0.379517 43.1369 0.390438 42.9351 0.413496C42.3085 0.484488 41.722 0.641035 41.1926 0.880103C40.3988 1.2381 39.7327 1.7848 39.2714 2.49048C39.0404 2.84301 38.8611 3.23317 38.7402 3.65426C38.6192 4.07537 38.5566 4.5268 38.5566 5.0013C38.5566 5.21124 38.5688 5.42604 38.5937 5.64449C38.6715 6.33557 38.8684 6.95876 39.1614 7.5006C39.6002 8.31426 40.2524 8.93986 41.0109 9.35491C41.7694 9.77114 42.6336 9.98046 43.5131 9.98046C43.7192 9.98046 43.9264 9.96895 44.1336 9.9459C44.7804 9.87307 45.3796 9.72076 45.9187 9.48715C46.3229 9.31244 46.6931 9.09156 47.0206 8.8258C47.5117 8.42837 47.9055 7.92776 48.1706 7.34587C48.4361 6.76397 48.5735 6.1038 48.5735 5.3872C48.5735 5.16573 48.5608 4.9388 48.5346 4.70701L48.5334 4.70823Z" fill="#FA0F5C"/>
<path d="M17.4369 40.629C17.3597 40.1551 17.2315 39.6776 17.0674 39.234C16.9021 38.7899 16.7027 38.3803 16.4656 38.0387L16.2086 37.6685L15.7953 37.8487C15.3674 38.0357 14.8362 38.1904 14.2734 38.2953C13.7106 38.4003 13.115 38.4567 12.5552 38.4567C12.0738 38.4567 11.6696 38.3833 11.336 38.2462C11.0856 38.1431 10.8728 38.0059 10.6856 37.8269C10.5458 37.6922 10.4194 37.5332 10.3076 37.3433C10.1398 37.0588 10.0031 36.7032 9.90951 36.2669C9.81527 35.8307 9.76484 35.3149 9.76484 34.7178V2.75369C9.76484 2.40237 9.71256 2.06985 9.58859 1.76586C9.49621 1.53832 9.36187 1.32899 9.19111 1.15242C9.06288 1.02014 8.91518 0.906068 8.7529 0.812019C8.50917 0.670641 8.23504 0.573557 7.93544 0.51106C7.63579 0.448562 7.30938 0.420044 6.95262 0.420044C4.82296 0.420044 2.92363 0.662753 1.14283 1.15181L0.739258 1.26285V34.4181C0.739258 36.0012 0.891205 37.495 1.22852 38.8554C1.48197 39.8754 1.83996 40.8201 2.31949 41.6672C2.6793 42.3018 3.10779 42.8813 3.61043 43.3916C4.36347 44.1574 5.28365 44.7654 6.36794 45.1762C7.45224 45.5875 8.69877 45.8029 10.1125 45.8029C11.2381 45.8029 12.2519 45.6877 13.1447 45.4801C13.8145 45.3242 14.4156 45.1161 14.9456 44.8642C15.7394 44.4857 16.3733 44.0081 16.82 43.4475C17.0431 43.1671 17.2181 42.8661 17.3372 42.5494C17.4563 42.2327 17.519 41.9002 17.519 41.5647C17.519 41.2613 17.4898 40.947 17.4381 40.6308L17.4369 40.629Z" fill="#FA0F5C"/>
</svg>
