<?xml version="1.0" encoding="UTF-8"?>
<svg id="Camada_2" data-name="Camada 2" xmlns="http://www.w3.org/2000/svg" viewBox="0 0 599.62 137.42">
  <defs>
    <style>
      .cls-1 {
        fill: #fff;
      }
    </style>
  </defs>
  <g id="Layer_1" data-name="Layer 1">
    <g>
      <path class="cls-1" d="m10.21,117.39c3.81,0,6.73.86,8.75,2.58,2.02,1.72,3.04,4.13,3.04,7.23s-1.01,5.51-3.04,7.23c-2.02,1.72-4.94,2.58-8.74,2.58H0v-19.61l10.21-.03Zm9.31,9.8c0-2.6-.82-4.55-2.47-5.87s-3.95-1.97-6.89-1.97H2.42v15.68h7.74c2.95,0,5.25-.66,6.9-1.97s2.47-3.27,2.47-5.87h-.01Z"/>
      <path class="cls-1" d="m47.81,137.03h-21.11v-19.61h20.44v2h-18.01v6.86h15.82v1.87h-15.82v6.89h18.68v1.98Z"/>
      <path class="cls-1" d="m62.3,125.86c3.68.29,6.38.83,8.12,1.64,1.74.81,2.61,2.16,2.61,4.06s-.92,3.34-2.76,4.35c-1.85,1.01-4.57,1.52-8.16,1.52-1.98,0-4.01-.19-6.08-.59-2.08-.4-3.9-.89-5.44-1.48v-2.24c1.3.62,3.02,1.15,5.15,1.6s4.21.68,6.25.68c5.71,0,8.57-1.22,8.56-3.64,0-1.24-.7-2.15-2.11-2.69s-3.69-.93-6.85-1.13c-1.01-.07-1.85-.14-2.5-.19-.66-.05-1.39-.15-2.23-.29-.83-.14-1.52-.29-2.04-.45-.52-.16-1.07-.37-1.64-.63-.57-.26-1.01-.56-1.31-.9s-.56-.75-.77-1.24c-.21-.49-.3-1.05-.3-1.67,0-1.24.49-2.28,1.46-3.1s2.21-1.39,3.73-1.74,3.31-.51,5.37-.51,4.12.18,5.99.53c1.87.36,3.27.72,4.18,1.12v2.24c-1.13-.51-2.6-.94-4.4-1.33s-3.68-.57-5.63-.57c-2.45,0-4.42.27-5.91.82s-2.24,1.37-2.24,2.47c0,.31.05.6.15.86.1.26.27.49.53.68.26.19.52.37.77.52.25.15.63.29,1.13.41.51.12.93.22,1.29.29.36.07.88.14,1.57.21.7.07,1.26.12,1.68.16.42.04,1.05.08,1.87.14l-.05.08Z"/>
      <path class="cls-1" d="m98.51,137.03h-21.11v-19.61h20.44v2h-18.01v6.86h15.82v1.87h-15.82v6.89h18.68v1.98Z"/>
      <path class="cls-1" d="m124.96,117.42v19.61h-2.88l-16.56-16.67h-.14v16.67h-2.38v-19.61h2.88l16.52,16.64h.15v-16.64h2.41Z"/>
      <path class="cls-1" d="m138.52,137.03l-10.05-19.61h2.69l8.9,17.36h.14l8.9-17.36h2.69l-10.02,19.61h-3.25Z"/>
      <path class="cls-1" d="m174.58,119.88c2.04,1.8,3.05,4.27,3.05,7.38s-1.01,5.58-3.05,7.38c-2.04,1.8-4.95,2.71-8.74,2.71s-6.7-.9-8.74-2.71c-2.04-1.8-3.06-4.27-3.06-7.38s1.03-5.58,3.06-7.38,4.95-2.71,8.74-2.71,6.7.9,8.74,2.71Zm-8.74,15.52c2.94,0,5.24-.7,6.89-2.09s2.49-3.42,2.49-6.06-.83-4.66-2.49-6.06-3.95-2.09-6.89-2.09-5.26.7-6.92,2.09-2.49,3.4-2.49,6.04.83,4.65,2.49,6.04c1.65,1.39,3.96,2.09,6.92,2.09v.03Z"/>
      <path class="cls-1" d="m184.76,117.42v17.62h17.55v1.98h-19.99v-19.61h2.43Z"/>
      <path class="cls-1" d="m213.54,137.03l-10.05-19.61h2.69l8.9,17.36h.14l8.9-17.36h2.69l-10.02,19.61h-3.25Z"/>
      <path class="cls-1" d="m230.33,117.42h2.43v19.61h-2.43v-19.61Z"/>
      <path class="cls-1" d="m265.15,117.42v19.61h-2.43v-16.49h-.14l-9.38,16.49h-2.49l-9.38-16.49h-.15v16.49h-2.43v-19.61h3.47l9.67,17.04h.14l9.65-17.04h3.47Z"/>
      <path class="cls-1" d="m292.25,137.03h-21.11v-19.61h20.44v2h-18.01v6.86h15.82v1.87h-15.82v6.89h18.68v1.98Z"/>
      <path class="cls-1" d="m318.71,117.42v19.61h-2.88l-16.56-16.67h-.14v16.67h-2.38v-19.61h2.88l16.52,16.64h.15v-16.64h2.41Z"/>
      <path class="cls-1" d="m322.3,117.42h21.4v2h-9.46v17.61h-2.47v-17.61h-9.46v-2Z"/>
      <path class="cls-1" d="m366.56,119.88c2.04,1.8,3.05,4.27,3.05,7.38s-1.01,5.58-3.05,7.38c-2.04,1.8-4.95,2.71-8.74,2.71s-6.7-.9-8.74-2.71c-2.04-1.8-3.06-4.27-3.06-7.38s1.03-5.58,3.06-7.38,4.95-2.71,8.74-2.71,6.7.9,8.74,2.71Zm-8.74,15.52c2.94,0,5.24-.7,6.89-2.09s2.49-3.42,2.49-6.06-.83-4.66-2.49-6.06-3.95-2.09-6.89-2.09-5.26.7-6.92,2.09-2.49,3.4-2.49,6.04.83,4.65,2.49,6.04c1.65,1.39,3.96,2.09,6.92,2.09v.03Z"/>
      <path class="cls-1" d="m384.1,117.42h2.43v19.61h-2.43v-19.61Z"/>
      <path class="cls-1" d="m418.92,117.42v19.61h-2.43v-16.49h-.14l-9.38,16.49h-2.49l-9.38-16.49h-.15v16.49h-2.43v-19.61h3.47l9.67,17.04h.14l9.65-17.04h3.47Z"/>
      <path class="cls-1" d="m444.17,119.88c2.04,1.8,3.05,4.27,3.05,7.38s-1.01,5.58-3.05,7.38c-2.04,1.8-4.95,2.71-8.74,2.71s-6.7-.9-8.74-2.71c-2.04-1.8-3.06-4.27-3.06-7.38s1.03-5.58,3.06-7.38,4.95-2.71,8.74-2.71,6.7.9,8.74,2.71Zm-8.74,15.52c2.94,0,5.24-.7,6.89-2.09s2.49-3.42,2.49-6.06-.83-4.66-2.49-6.06-3.95-2.09-6.89-2.09-5.26.7-6.92,2.09-2.49,3.4-2.49,6.04.83,4.65,2.49,6.04c1.65,1.39,3.96,2.09,6.92,2.09v.03Z"/>
      <path class="cls-1" d="m464.57,117.45c2.37,0,4.18.44,5.46,1.33s1.9,2.12,1.9,3.71c0,2.12-1.09,3.54-3.29,4.27v.15c2.78.7,4.17,2.3,4.17,4.8,0,1.7-.63,3.01-1.89,3.94s-3.08,1.39-5.44,1.39h-13.55v-19.61l12.65.03Zm-10.2,8.61h9.94c1.52,0,2.75-.29,3.69-.86.94-.57,1.42-1.41,1.42-2.5s-.48-1.93-1.44-2.5-2.19-.86-3.71-.86h-9.91v6.73Zm14.51,8.2c.94-.63,1.42-1.54,1.42-2.75s-.48-2.13-1.44-2.76-2.19-.94-3.71-.94h-10.79v7.4h10.79c1.53,0,2.78-.31,3.72-.94Z"/>
      <path class="cls-1" d="m477.42,117.42h2.43v19.61h-2.43v-19.61Z"/>
      <path class="cls-1" d="m488.28,117.42v17.62h17.55v1.98h-19.99v-19.61h2.43Z"/>
      <path class="cls-1" d="m509.47,117.42h2.43v19.61h-2.43v-19.61Z"/>
      <path class="cls-1" d="m539.31,137.03h-2.67l-2.35-4.46h-13.85l-2.37,4.46h-2.65l10.34-19.61h3.24l10.31,19.61Zm-5.93-6.3l-5.93-11.22h-.15l-5.93,11.22h12.02Zm.05-19.71l-5.07,4.06h-2.04l3.8-4.06h3.31Z"/>
      <path class="cls-1" d="m563.65,133.06c.04.3.08.68.14,1.15.05.46.1.79.12.98.03.19.08.42.15.68.07.26.14.48.21.64.07.16.16.33.29.49h-2.57c-.11-.15-.21-.33-.29-.52-.08-.19-.15-.44-.21-.72s-.1-.55-.14-.77c-.04-.22-.08-.55-.12-.98s-.08-.78-.12-1.03c-.23-1.53-.72-2.57-1.49-3.12-.77-.55-2.17-.82-4.24-.82h-10.12v7.96h-2.43v-19.61h12.24c2.88,0,5.07.48,6.56,1.44,1.49.96,2.23,2.35,2.23,4.18,0,2.42-1.31,4.09-3.92,5v.14c1.24.25,2.12.72,2.62,1.44.51.71.88,1.86,1.11,3.45h-.01Zm-8.57-5.78c1.96,0,3.5-.34,4.62-1.03s1.68-1.7,1.68-3.05c0-2.54-2.11-3.81-6.3-3.8h-9.83v7.86h9.83Z"/>
      <path class="cls-1" d="m568.89,117.42h2.43v19.61h-2.43v-19.61Z"/>
      <path class="cls-1" d="m596.57,119.88c2.04,1.8,3.05,4.27,3.05,7.38s-1.01,5.58-3.05,7.38c-2.04,1.8-4.95,2.71-8.74,2.71s-6.7-.9-8.74-2.71c-2.04-1.8-3.06-4.27-3.06-7.38s1.03-5.58,3.06-7.38,4.95-2.71,8.74-2.71,6.7.9,8.74,2.71Zm-8.74,15.52c2.94,0,5.24-.7,6.89-2.09s2.49-3.42,2.49-6.06-.83-4.66-2.49-6.06-3.95-2.09-6.89-2.09-5.26.7-6.92,2.09-2.49,3.4-2.49,6.04.83,4.65,2.49,6.04c1.65,1.39,3.96,2.09,6.92,2.09v.03Z"/>
    </g>
    <g>
      <path class="cls-1" d="m201.86,78.33c-1.34-2.77-1.48-9.33-1.59-19.8-.15-15.34-3.13-25.02-9.67-31.39-6.99-6.81-18.43-9.98-35.99-9.98-26.61,0-37.64,5.24-45.39,21.57l-.94,1.97c-.42.88.22,1.89,1.19,1.89h19.06c.41,0,.8-.19,1.05-.52l.41-.54c3.26-4.28,12.2-5.16,24.61-5.16,10.95,0,17.33,1.36,20.69,4.4,2.29,2.07,3.56,5.19,4.14,10.48-6.52-3.62-16.15-5.28-30.11-5.28-15.77,0-26.46,2-33.64,6.3-7.45,4.45-11.07,11.39-11.07,21.21,0,10.44,3.63,17.62,11.1,21.97,6.98,4.06,17.35,5.87,33.62,5.87,17.97,0,29.23-3.05,35.62-9.78,5.42,7.47,14.9,9.87,24.98,9.87h1.38c.73,0,1.32-.59,1.32-1.32v-16.57c0-.73-.59-1.32-1.32-1.32h-1.38c-6,0-7.28-2.24-8.06-3.87Zm-52.54-14.09c28.1,0,30.45,4.43,30.45,8.98,0,4.93-3.69,9.49-30.45,9.49-22.57,0-24.32-3.83-24.32-9.23,0-2.76,0-9.23,24.32-9.23Z"/>
      <path class="cls-1" d="m287.34,57.97c0,15.63-10.45,24.23-29.43,24.23-8.63,0-14.08-1.58-17.15-4.97-2.95-3.26-4.27-8.65-4.27-17.47V21.47c0-.73-.59-1.32-1.32-1.32h-17.76c-.73,0-1.32.59-1.32,1.32v38.29c0,15.14,3.13,25.26,9.84,31.85,6.81,6.68,17.35,9.8,33.17,9.8,12.24,0,21.7-3.46,28.24-10.31v8.99c0,.73.59,1.32,1.32,1.32h17.76c.73,0,1.32-.59,1.32-1.32V21.47c0-.73-.59-1.32-1.32-1.32h-17.76c-.73,0-1.32.59-1.32,1.32v36.5Z"/>
      <path class="cls-1" d="m370.44,78.24c-.52,1.96-1.69,3.87-9.58,3.87-6.93,0-10.68-2.31-10.68-14.52v-28.24h34.9c.73,0,1.32-.59,1.32-1.32v-16.57c0-.73-.59-1.32-1.32-1.32h-34.82V2.12c0-.73-.59-1.32-1.32-1.32h-18.44c-.73,0-1.32.59-1.32,1.32v18.03h-14.11c-.73,0-1.32.59-1.32,1.32v16.57c0,.73.59,1.32,1.32,1.32h14.11v30.2c0,22.26,9.47,31.76,31.68,31.76,19.4,0,28.51-6.59,30.46-22.05l.2-1.55c.1-.79-.51-1.48-1.31-1.48h-18.23c-.6,0-1.12.4-1.28.98l-.27,1.03Z"/>
      <path class="cls-1" d="m481.84,26.52c-8.11-6.21-20.29-9.36-36.2-9.36s-28.47,3.35-36.89,9.96c-8.87,6.96-13.37,17.48-13.37,31.26,0,14.83,3.91,25.44,11.95,32.45,8.15,7.11,20.68,10.56,38.31,10.56,26.29,0,38.33-5.83,46-22.27l.92-1.96c.41-.87-.23-1.88-1.2-1.88h-18.96c-.41,0-.8.19-1.05.52l-.41.54c-2.95,3.88-11.46,5.84-25.3,5.84-18.52,0-26.03-3.3-28.53-13.27h75.25c.73,0,1.32-.59,1.32-1.32v-15.19c0-11.17-3.98-19.88-11.84-25.9Zm-36.2,9.85c15.85,0,26.1,2.32,27.48,13.35h-56.35c1.94-10.64,8.44-13.35,28.87-13.35Z"/>
      <path class="cls-1" d="m585.72,26.88c-6.83-6.72-17.41-9.71-34.29-9.71-14.1,0-24.48,3.43-31.48,10.45v-6.15c0-.73-.59-1.32-1.32-1.32h-17.76c-.73,0-1.32.59-1.32,1.32v78.69c0,.73.59,1.32,1.32,1.32h17.76c.73,0,1.32-.59,1.32-1.32v-40.75c0-7.91,2.33-13.56,7.14-17.29,4.92-3.82,12.7-5.75,23.15-5.75,9.78,0,16.02,1.59,19.61,5,3.43,3.26,4.97,8.59,4.97,17.27v41.51c0,.73.59,1.32,1.32,1.32h17.76c.73,0,1.32-.59,1.32-1.32v-41.51c0-15.52-2.93-25.31-9.49-31.77Z"/>
      <path class="cls-1" d="m84.15,49.48c8.46-5.06,11.77-12.88,11.77-22.62C95.92,6.81,81.2,0,57.38,0H1.32C.59,0,0,.59,0,1.32v98.24c0,.73.59,1.32,1.32,1.32h59.84c23.82,0,38.62-6.71,38.62-26.95,0-11.04-4.32-19.68-15.63-24.46Zm-14.84,15.7c.33.35.33.91,0,1.26l-14.61,15.52c-.57.61-1.59.2-1.59-.63v-3.1c0-.51-.41-.92-.92-.92h-25.73c-.51,0-.92-.41-.92-.92v-18.48c0-.51.41-.92.92-.92h17.5c3.61,0,6.54-2.93,6.54-6.54s-2.93-6.54-6.54-6.54h-17.5c-.51,0-.92-.42-.92-.93v-18.48c0-.51.41-.92.92-.92h25.73c.51,0,.92-.41.92-.92v-3.1c0-.83,1.02-1.24,1.59-.63l14.61,15.52c.33.35.33.91,0,1.26l-13.87,14.74,13.87,14.74Z"/>
    </g>
  </g>
</svg>