<svg width="65" height="66" viewBox="0 0 65 66" fill="none" xmlns="http://www.w3.org/2000/svg">
<g id="Layer 2">
<path id="Vector" d="M64.88 48.5342V49.655C64.88 57.8781 56.4711 65.5 48.3732 65.5H0.890015V0.5H45.6138C54.8053 0.5 62.261 8.07094 62.261 17.4047V19.4834C62.261 25.1998 59.08 30.1622 54.424 32.6586C60.6454 35.043 64.89 41.2384 64.89 48.524L64.88 48.5342ZM35.5993 12.3914L35.2682 12.4219L35.0073 12.6257L34.8969 12.9722V14.9795L34.8467 15.2139L34.7163 15.4075L34.5256 15.54L34.2948 15.5909H17.8784L17.6476 15.6419L17.457 15.7743L17.3265 15.9679L17.2763 16.2023V28.1752L17.6376 28.7254L29.0267 28.7764L29.5887 28.8171L30.1305 28.9292L30.6423 29.1126L31.1239 29.3572L31.5655 29.6629L31.9668 30.0195L32.318 30.4271L32.6191 30.8755L32.8599 31.3646L33.0405 31.8842L33.1509 32.4345L33.191 33.0051L33.1509 33.5757L33.0405 34.126L32.8599 34.6456L32.6191 35.1347L32.318 35.5831L31.9668 35.9907L31.5655 36.3473L31.1239 36.653L30.6423 36.8976L30.1305 37.081L29.5887 37.1931L29.0267 37.2338H17.8583L17.6276 37.2848L17.4369 37.4172L17.3064 37.6108L17.2563 37.8452V49.8181L17.3064 50.0524L17.4369 50.246L17.6276 50.3785L17.8583 50.4295H34.2748L34.5056 50.4804L34.6962 50.6129L34.8267 50.8065L34.8768 51.0408V53.0482L34.9872 53.3947L35.2481 53.5984L35.5793 53.629L35.8903 53.4558L45.2124 43.3986L45.3328 43.205L45.3729 42.991L45.3328 42.777L45.2124 42.5834L36.3619 33.0357L45.2124 23.4879L45.3328 23.2943L45.3729 23.0803L45.3328 22.8664L45.2124 22.6728L35.8903 12.6155L35.5793 12.4423L35.5993 12.3914Z" fill="white"/>
</g>
</svg>
