<svg width="191" height="674" viewBox="0 0 191 674" fill="none" xmlns="http://www.w3.org/2000/svg">
<g clip-path="url(#clip0_24_5930)">
<path d="M58.5037 549.23L190.437 673.519C190.617 673.692 190.812 673.842 191 674V651.189L58.4962 526.374V549.23H58.5037Z" fill="#606060"/>
<path d="M58.5037 549.23L-73.4373 673.519C-73.6174 673.692 -73.8124 673.842 -74 674V651.189L58.5037 526.374V549.23Z" fill="#888686"/>
<path d="M58.5037 461.5L190.437 585.789C190.617 585.962 190.812 586.112 191 586.27V563.459L58.4962 438.644V461.5H58.5037Z" fill="#606060"/>
<path d="M58.5037 461.5L-73.4373 585.789C-73.6174 585.962 -73.8124 586.112 -74 586.27V563.459L58.5037 438.644V461.5Z" fill="#888686"/>
<path d="M58.5037 373.77L190.437 498.059C190.617 498.232 190.812 498.382 191 498.54V475.728L58.4962 350.913V373.77H58.5037Z" fill="#606060"/>
<path d="M58.5037 373.77L-73.4373 498.059C-73.6174 498.232 -73.8124 498.382 -74 498.54V475.728L58.5037 350.913V373.77Z" fill="#888686"/>
<path d="M58.5037 198.317L190.437 322.606C190.617 322.779 190.812 322.929 191 323.087V300.276L58.4962 175.46V198.317H58.5037Z" fill="#606060"/>
<path d="M58.5037 198.317L-73.4373 322.606C-73.6174 322.779 -73.8124 322.929 -74 323.087V300.276L58.5037 175.46V198.317Z" fill="#888686"/>
<path d="M58.5037 110.586L190.437 234.876C190.617 235.049 190.812 235.199 191 235.356V212.545L58.5037 87.7302V110.586Z" fill="#606060"/>
<path d="M58.5037 110.586L-73.4373 234.876C-73.6174 235.049 -73.8124 235.199 -74 235.356V212.545L58.5037 87.7302V110.586Z" fill="#888686"/>
<path d="M58.5037 22.8561L190.437 147.146C190.617 147.318 190.812 147.468 191 147.626V124.815L58.5037 0V22.8561Z" fill="#606060"/>
<path d="M58.5037 22.8561L-73.4373 147.146C-73.6174 147.318 -73.8124 147.468 -74 147.626V124.815L58.5037 0V22.8561Z" fill="#888686"/>
</g>
<defs>
<clipPath id="clip0_24_5930">
<rect width="265" height="674" fill="white" transform="translate(-74)"/>
</clipPath>
</defs>
</svg>
