<svg width="32" height="31" viewBox="0 0 32 31" fill="none" xmlns="http://www.w3.org/2000/svg">
<g id="Instagram" clip-path="url(#clip0_21_6301)">
<g id="Vector">
<path d="M16.2427 2.91424C20.3445 2.91424 20.826 2.93252 22.4472 3.00566C23.9465 3.0727 24.7571 3.32259 25.2995 3.5359C26.0187 3.81626 26.5307 4.14538 27.067 4.68172C27.6034 5.21806 27.9386 5.73002 28.2128 6.4492C28.4201 6.99163 28.676 7.80223 28.7431 9.30154C28.8162 10.9227 28.8345 11.4042 28.8345 15.506C28.8345 19.6078 28.8162 20.0893 28.7431 21.7105C28.676 23.2098 28.4262 24.0204 28.2128 24.5628C27.9325 25.282 27.6034 25.794 27.067 26.3303C26.5307 26.8666 26.0187 27.2019 25.2995 27.4761C24.7571 27.6833 23.9465 27.9393 22.4472 28.0064C20.826 28.0795 20.3445 28.0978 16.2427 28.0978C12.1409 28.0978 11.6595 28.0795 10.0383 28.0064C8.53894 27.9393 7.72834 27.6894 7.1859 27.4761C6.46672 27.1958 5.95476 26.8666 5.41842 26.3303C4.88208 25.794 4.54687 25.282 4.27261 24.5628C4.06539 24.0204 3.80941 23.2098 3.74236 21.7105C3.66923 20.0893 3.65094 19.6078 3.65094 15.506C3.65094 11.4042 3.66923 10.9227 3.74236 9.30154C3.80941 7.80223 4.05929 6.99163 4.27261 6.4492C4.55297 5.73002 4.88208 5.21806 5.41842 4.68172C5.95476 4.14538 6.46672 3.81017 7.1859 3.5359C7.72834 3.32868 8.53894 3.0727 10.0383 3.00566C11.6595 2.92643 12.147 2.91424 16.2427 2.91424ZM16.2427 0.147217C12.0739 0.147217 11.5498 0.165501 9.91026 0.238638C8.27687 0.311775 7.16153 0.57385 6.18636 0.951725C5.17463 1.34179 4.32137 1.87203 3.4681 2.7253C2.61483 3.57857 2.09068 4.43793 1.69452 5.44356C1.31665 6.41872 1.05457 7.53406 0.981436 9.17355C0.908299 10.8069 0.890015 11.3311 0.890015 15.4999C0.890015 19.6687 0.908299 20.1929 0.981436 21.8324C1.05457 23.4658 1.31665 24.5811 1.69452 25.5624C2.08459 26.5741 2.61483 27.4274 3.4681 28.2806C4.32137 29.1339 5.18073 29.658 6.18636 30.0542C7.16153 30.4321 8.27687 30.6941 9.91636 30.7673C11.5559 30.8404 12.0739 30.8587 16.2488 30.8587C20.4237 30.8587 20.9418 30.8404 22.5813 30.7673C24.2147 30.6941 25.33 30.4321 26.3113 30.0542C27.323 29.6641 28.1763 29.1339 29.0295 28.2806C29.8828 27.4274 30.407 26.568 30.8031 25.5624C31.181 24.5872 31.4431 23.4719 31.5162 21.8324C31.5893 20.1929 31.6076 19.6748 31.6076 15.4999C31.6076 11.325 31.5893 10.8069 31.5162 9.16746C31.4431 7.53406 31.181 6.41872 30.8031 5.43747C30.413 4.42574 29.8828 3.57247 29.0295 2.7192C28.1763 1.86594 27.3169 1.34179 26.3113 0.94563C25.3361 0.567755 24.2208 0.305681 22.5813 0.232543C20.9357 0.165501 20.4115 0.147217 16.2427 0.147217Z" fill="#F0F0F0"/>
<path d="M16.2427 2.91424C20.3445 2.91424 20.826 2.93252 22.4472 3.00566C23.9465 3.0727 24.7571 3.32259 25.2995 3.5359C26.0187 3.81626 26.5307 4.14538 27.067 4.68172C27.6034 5.21806 27.9386 5.73002 28.2128 6.4492C28.4201 6.99163 28.676 7.80223 28.7431 9.30154C28.8162 10.9227 28.8345 11.4042 28.8345 15.506C28.8345 19.6078 28.8162 20.0893 28.7431 21.7105C28.676 23.2098 28.4262 24.0204 28.2128 24.5628C27.9325 25.282 27.6034 25.794 27.067 26.3303C26.5307 26.8666 26.0187 27.2019 25.2995 27.4761C24.7571 27.6833 23.9465 27.9393 22.4472 28.0064C20.826 28.0795 20.3445 28.0978 16.2427 28.0978C12.1409 28.0978 11.6595 28.0795 10.0383 28.0064C8.53894 27.9393 7.72834 27.6894 7.1859 27.4761C6.46672 27.1958 5.95476 26.8666 5.41842 26.3303C4.88208 25.794 4.54687 25.282 4.27261 24.5628C4.06539 24.0204 3.80941 23.2098 3.74236 21.7105C3.66923 20.0893 3.65094 19.6078 3.65094 15.506C3.65094 11.4042 3.66923 10.9227 3.74236 9.30154C3.80941 7.80223 4.05929 6.99163 4.27261 6.4492C4.55297 5.73002 4.88208 5.21806 5.41842 4.68172C5.95476 4.14538 6.46672 3.81017 7.1859 3.5359C7.72834 3.32868 8.53894 3.0727 10.0383 3.00566C11.6595 2.92643 12.147 2.91424 16.2427 2.91424Z" fill="#F0F0F0"/>
</g>
<path id="Vector_2" d="M16.2427 7.61938C11.891 7.61938 8.35608 11.1482 8.35608 15.506C8.35608 19.8638 11.8849 23.3926 16.2427 23.3926C20.6004 23.3926 24.1293 19.8638 24.1293 15.506C24.1293 11.1482 20.6004 7.61938 16.2427 7.61938ZM16.2427 20.6195C13.4147 20.6195 11.1231 18.3279 11.1231 15.4999C11.1231 12.6719 13.4147 10.3803 16.2427 10.3803C19.0707 10.3803 21.3623 12.6719 21.3623 15.4999C21.3623 18.3279 19.0707 20.6195 16.2427 20.6195Z" fill="#7F735E"/>
<path id="Vector_3" d="M24.4402 9.14315C25.4567 9.14315 26.2808 8.31908 26.2808 7.30253C26.2808 6.28599 25.4567 5.46191 24.4402 5.46191C23.4236 5.46191 22.5995 6.28599 22.5995 7.30253C22.5995 8.31908 23.4236 9.14315 24.4402 9.14315Z" fill="#7F735E"/>
</g>
<defs>
<clipPath id="clip0_21_6301">
<rect width="30.7054" height="30.7054" fill="white" transform="translate(0.890015 0.147217)"/>
</clipPath>
</defs>
</svg>
