<svg width="32" height="31" viewBox="0 0 32 31" fill="none" xmlns="http://www.w3.org/2000/svg">
<g id="LinkedIn" clip-path="url(#clip0_21_6314)">
<path id="Vector" d="M28.7603 0.147217H2.58819C1.98703 0.147217 1.4105 0.386025 0.985421 0.811105C0.560341 1.23619 0.321533 1.81272 0.321533 2.41387V28.586C0.321533 29.1871 0.560341 29.7636 0.985421 30.1887C1.4105 30.6138 1.98703 30.8526 2.58819 30.8526H28.7603C29.3614 30.8526 29.938 30.6138 30.363 30.1887C30.7881 29.7636 31.0269 29.1871 31.0269 28.586V2.41387C31.0269 1.81272 30.7881 1.23619 30.363 0.811105C29.938 0.386025 29.3614 0.147217 28.7603 0.147217ZM9.47345 26.3044H4.85698V11.6404H9.47345V26.3044ZM7.16201 9.60832C6.63835 9.60537 6.1273 9.44736 5.69336 9.15424C5.25941 8.86113 4.92202 8.44603 4.72376 7.96134C4.5255 7.47665 4.47527 6.9441 4.57939 6.43089C4.68351 5.91768 4.93732 5.44681 5.3088 5.07771C5.68027 4.70861 6.15276 4.45783 6.66663 4.357C7.1805 4.25618 7.71272 4.30984 8.19613 4.5112C8.67953 4.71257 9.09245 5.05262 9.38278 5.48844C9.67311 5.92425 9.82782 6.43631 9.82741 6.95998C9.83235 7.31057 9.76665 7.65857 9.63424 7.98324C9.50182 8.3079 9.3054 8.60259 9.05667 8.84972C8.80794 9.09686 8.512 9.29139 8.18649 9.42172C7.86099 9.55205 7.51257 9.61551 7.16201 9.60832ZM26.4894 26.3172H21.875V18.306C21.875 15.9434 20.8707 15.2142 19.5742 15.2142C18.2053 15.2142 16.8619 16.2462 16.8619 18.3658V26.3172H12.2455V11.6511H16.6849V13.6832H16.7447C17.1903 12.7812 18.7512 11.2395 21.133 11.2395C23.7088 11.2395 26.4915 12.7684 26.4915 17.2463L26.4894 26.3172Z" fill="#F0F0F0"/>
</g>
<defs>
<clipPath id="clip0_21_6314">
<rect width="30.7054" height="30.7054" fill="white" transform="translate(0.321533 0.147217)"/>
</clipPath>
</defs>
</svg>
