<svg width="31" height="31" viewBox="0 0 31 31" fill="none" xmlns="http://www.w3.org/2000/svg">
<g id="Twitter" clip-path="url(#clip0_21_6336)">
<path id="Vector" d="M27.1248 9.33423C27.1367 9.60444 27.1367 9.86236 27.1367 10.1326C27.1485 18.3248 21.1297 27.7821 10.1227 27.7821C6.87634 27.7821 3.68919 26.8118 0.952271 24.994C1.4262 25.0554 1.90012 25.08 2.37405 25.08C5.06358 25.08 7.68201 24.1466 9.80283 22.4148C7.24363 22.3656 4.99249 20.6339 4.21051 18.1037C5.11097 18.288 6.03512 18.2511 6.91189 17.9932C4.12757 17.4282 2.12524 14.8858 2.11339 11.9258C2.11339 11.9012 2.11339 11.8766 2.11339 11.8521C2.94276 12.3311 3.87876 12.6013 4.82661 12.6259C2.20817 10.8081 1.39065 7.18484 2.9783 4.34766C6.02327 8.22883 10.5019 10.5747 15.3122 10.8327C14.8264 8.68327 15.4899 6.42335 17.042 4.90036C19.4472 2.55446 23.2386 2.67728 25.5135 5.17056C26.8523 4.90036 28.1438 4.3845 29.3167 3.65985C28.8665 5.09687 27.9305 6.31281 26.6864 7.08659C27.8712 6.9392 29.0324 6.60758 30.1224 6.11629C29.3167 7.36908 28.2978 8.44991 27.1248 9.33423Z" fill="#F0F0F0"/>
</g>
<defs>
<clipPath id="clip0_21_6336">
<rect width="30.7054" height="30.7054" fill="white" transform="translate(0.184631 0.147217)"/>
</clipPath>
</defs>
</svg>
