<svg width="21" height="21" viewBox="0 0 21 21" fill="none" xmlns="http://www.w3.org/2000/svg">
<g clip-path="url(#clip0_21_6278)">
<path d="M0.890015 20.1472L2.30358 15.0141C1.42965 13.5075 0.971199 11.8012 0.975974 10.0569C0.975974 4.59113 5.44589 0.147217 10.933 0.147217C13.5977 0.147217 16.1001 1.17859 17.9769 3.05121C19.8585 4.92383 20.8948 7.41433 20.89 10.0617C20.89 15.5274 16.4201 19.9714 10.9282 19.9714H10.9234C9.25677 19.9714 7.61876 19.5531 6.16222 18.7641L0.890015 20.1472ZM6.41532 16.9723L6.71618 17.1529C7.98648 17.9039 9.44302 18.2984 10.9282 18.3031H10.933C15.4936 18.3031 19.209 14.6101 19.209 10.0664C19.209 7.86585 18.3494 5.79836 16.7878 4.23942C15.2262 2.68049 13.1441 1.82497 10.933 1.82497C6.37234 1.82022 2.65697 5.51319 2.65697 10.0569C2.65697 11.6111 3.09154 13.1273 3.92249 14.439L4.11828 14.7527L3.28256 17.7898L6.41532 16.9723Z" fill="#F0F0F0"/>
<path d="M1.23859 19.8002L2.60439 14.843C1.75912 13.3934 1.315 11.7441 1.315 10.0616C1.31977 4.78597 5.63209 0.494141 10.9329 0.494141C13.507 0.494141 15.9186 1.49224 17.7333 3.29832C19.548 5.10441 20.5461 7.50935 20.5461 10.0664C20.5461 15.3421 16.229 19.6339 10.9329 19.6339H10.9282C9.31881 19.6339 7.7381 19.2299 6.33409 18.4694L1.23859 19.8002Z" fill="#7F735E"/>
<path d="M0.890015 20.1472L2.30358 15.0141C1.42965 13.5075 0.971199 11.8012 0.975974 10.0569C0.975974 4.59113 5.44589 0.147217 10.933 0.147217C13.5977 0.147217 16.1001 1.17859 17.9769 3.05121C19.8585 4.92383 20.8948 7.41433 20.89 10.0617C20.89 15.5274 16.4201 19.9714 10.9282 19.9714H10.9234C9.25677 19.9714 7.61876 19.5531 6.16222 18.7641L0.890015 20.1472ZM6.41532 16.9723L6.71618 17.1529C7.98648 17.9039 9.44302 18.2984 10.9282 18.3031H10.933C15.4936 18.3031 19.209 14.6101 19.209 10.0664C19.209 7.86585 18.3494 5.79836 16.7878 4.23942C15.2262 2.68049 13.1441 1.82497 10.933 1.82497C6.37234 1.82022 2.65697 5.51319 2.65697 10.0569C2.65697 11.6111 3.09154 13.1273 3.92249 14.439L4.11828 14.7527L3.28256 17.7898L6.41532 16.9723Z" fill="#F0F0F0"/>
<path fill-rule="evenodd" clip-rule="evenodd" d="M8.44485 5.91249C8.25861 5.49899 8.06281 5.48949 7.88612 5.48473C7.74285 5.47998 7.5757 5.47998 7.40856 5.47998C7.24142 5.47998 6.97399 5.54177 6.74476 5.78892C6.51553 6.03606 5.87561 6.63492 5.87561 7.85641C5.87561 9.07314 6.76864 10.2518 6.8928 10.4182C7.01697 10.5845 8.61677 13.1653 11.143 14.1587C13.2443 14.9857 13.6741 14.8193 14.1278 14.7766C14.5814 14.7338 15.5986 14.1777 15.8087 13.5979C16.0141 13.018 16.0141 12.5237 15.952 12.4191C15.8899 12.3146 15.7228 12.2528 15.4745 12.1292C15.2261 12.0056 14.0036 11.4068 13.7744 11.3212C13.5451 11.2404 13.378 11.1977 13.2156 11.4448C13.0485 11.692 12.5709 12.248 12.4277 12.4144C12.2844 12.5807 12.1364 12.5998 11.888 12.4762C11.6397 12.3526 10.8374 12.0912 9.88707 11.2452C9.14686 10.5893 8.64543 9.77656 8.50216 9.52941C8.35889 9.28226 8.48783 9.14918 8.612 9.02561C8.72184 8.91629 8.86033 8.73568 8.98449 8.5931C9.10865 8.45051 9.15163 8.34595 9.23282 8.1796C9.314 8.01325 9.2758 7.87067 9.21372 7.74709C9.15164 7.62827 8.66453 6.40203 8.44485 5.91249Z" fill="#F0F0F0"/>
</g>
<defs>
<clipPath id="clip0_21_6278">
<rect width="20" height="20" fill="white" transform="translate(0.890015 0.147217)"/>
</clipPath>
</defs>
</svg>
