<svg width="29" height="29" viewBox="0 0 29 29" fill="none" xmlns="http://www.w3.org/2000/svg">
<g id="Group">
<path id="Vector" d="M0.356201 28.6849L2.34293 21.4705C1.11465 19.3529 0.470304 16.9548 0.477016 14.5032C0.477016 6.82115 6.75938 0.575317 14.4714 0.575317C18.2167 0.575317 21.7337 2.02489 24.3715 4.65682C27.016 7.28875 28.4725 10.7891 28.4658 14.5099C28.4658 22.1919 22.1834 28.4377 14.4647 28.4377H14.458C12.1155 28.4377 9.81331 27.8499 7.76617 26.741L0.356201 28.6849ZM8.1219 24.2226L8.54476 24.4765C10.3301 25.5319 12.3773 26.0864 14.4647 26.0931H14.4714C20.8813 26.0931 26.1032 20.9027 26.1032 14.5166C26.1032 11.4237 24.895 8.51788 22.7002 6.32683C20.5054 4.13578 17.579 2.93337 14.4714 2.93337C8.0615 2.92669 2.83962 8.11708 2.83962 14.5032C2.83962 16.6876 3.4504 18.8185 4.61828 20.6622L4.89347 21.1031L3.71888 25.3716L8.1219 24.2226Z" fill="#F0F0F0"/>
<path id="Vector_2" d="M0.846069 28.1971L2.76568 21.2298C1.57767 19.1924 0.95346 16.8745 0.95346 14.5097C0.960172 7.09488 7.02105 1.06281 14.4713 1.06281C18.089 1.06281 21.4785 2.46561 24.0291 5.00403C26.5796 7.54244 27.9824 10.9225 27.9824 14.5164C27.9824 21.9312 21.9148 27.9633 14.4713 27.9633H14.4646C12.2027 27.9633 9.98101 27.3955 8.0077 26.3267L0.846069 28.1971Z" fill="#DEA251"/>
<path id="Vector_3" d="M0.356201 28.6849L2.34293 21.4705C1.11465 19.3529 0.470304 16.9548 0.477016 14.5032C0.477016 6.82115 6.75938 0.575317 14.4714 0.575317C18.2167 0.575317 21.7337 2.02489 24.3715 4.65682C27.016 7.28875 28.4725 10.7891 28.4658 14.5099C28.4658 22.1919 22.1834 28.4377 14.4647 28.4377H14.458C12.1155 28.4377 9.81331 27.8499 7.76617 26.741L0.356201 28.6849ZM8.1219 24.2226L8.54476 24.4765C10.3301 25.5319 12.3773 26.0864 14.4647 26.0931H14.4714C20.8813 26.0931 26.1032 20.9027 26.1032 14.5166C26.1032 11.4237 24.895 8.51788 22.7002 6.32683C20.5054 4.13578 17.579 2.93337 14.4714 2.93337C8.0615 2.92669 2.83962 8.11708 2.83962 14.5032C2.83962 16.6876 3.4504 18.8185 4.61828 20.6622L4.89347 21.1031L3.71888 25.3716L8.1219 24.2226Z" fill="#F0F0F0"/>
<path id="Vector_4" fill-rule="evenodd" clip-rule="evenodd" d="M10.9743 8.67826C10.7125 8.09709 10.4373 8.08373 10.189 8.07705C9.98765 8.07037 9.75273 8.07037 9.51781 8.07037C9.28289 8.07037 8.90703 8.15721 8.58485 8.50458C8.26268 8.85194 7.36328 9.69362 7.36328 11.4104C7.36328 13.1205 8.61841 14.7771 8.79292 15.0109C8.96743 15.2447 11.2159 18.872 14.7665 20.2681C17.7198 21.4304 18.3239 21.1966 18.9615 21.1365C19.5991 21.0764 21.0288 20.2948 21.3241 19.4799C21.6127 18.6649 21.6127 17.9702 21.5255 17.8232C21.4382 17.6763 21.2033 17.5894 20.8543 17.4157C20.5052 17.2421 18.787 16.4004 18.4648 16.2801C18.1426 16.1666 17.9077 16.1065 17.6795 16.4538C17.4446 16.8012 16.7734 17.5827 16.5721 17.8165C16.3707 18.0503 16.1626 18.0771 15.8136 17.9034C15.4646 17.7297 14.337 17.3623 13.0013 16.1733C11.961 15.2514 11.2562 14.1091 11.0548 13.7618C10.8535 13.4144 11.0347 13.2274 11.2092 13.0537C11.3636 12.9 11.5582 12.6462 11.7327 12.4458C11.9073 12.2454 11.9677 12.0984 12.0818 11.8646C12.1959 11.6308 12.1422 11.4304 12.0549 11.2568C11.9677 11.0897 11.283 9.3663 10.9743 8.67826Z" fill="#F0F0F0"/>
</g>
</svg>
